<?xml version="1.0" encoding="UTF-8" standalone="no"?>
<svg
   xmlns:dc="http://purl.org/dc/elements/1.1/"
   xmlns:cc="http://creativecommons.org/ns#"
   xmlns:rdf="http://www.w3.org/1999/02/22-rdf-syntax-ns#"
   xmlns:svg="http://www.w3.org/2000/svg"
   xmlns="http://www.w3.org/2000/svg"
   xmlns:sodipodi="http://sodipodi.sourceforge.net/DTD/sodipodi-0.dtd"
   xmlns:inkscape="http://www.inkscape.org/namespaces/inkscape"
   width="16"
   height="16"
   viewBox="0 0 4.2333334 4.2333333"
   version="1.1"
   id="svg8"
   inkscape:version="1.0.2 (1.0.2+r75+1)"
   sodipodi:docname="bullet-sm9.svg">
  <defs
     id="defs2">
    <clipPath
       clipPathUnits="userSpaceOnUse"
       id="clipPath1239">
      <rect
         style="fill:none;stroke:#000000;stroke-width:0.79375;stroke-miterlimit:4;stroke-dasharray:none"
         id="rect1241"
         width="26.458332"
         height="25.135416"
         x="3.5718739"
         y="5.2916713" />
    </clipPath>
  </defs>
  <sodipodi:namedview
     id="base"
     pagecolor="#ffffff"
     bordercolor="#666666"
     borderopacity="1.0"
     inkscape:pageopacity="0.0"
     inkscape:pageshadow="2"
     inkscape:zoom="31.999999"
     inkscape:cx="6.8482066"
     inkscape:cy="13.685643"
     inkscape:document-units="px"
     inkscape:current-layer="g877"
     inkscape:document-rotation="0"
     showgrid="true"
     units="px"
     lock-margins="false"
     inkscape:pagecheckerboard="true"
     borderlayer="false"
     fit-margin-top="10"
     fit-margin-left="10"
     fit-margin-right="10"
     fit-margin-bottom="10"
     inkscape:window-width="1514"
     inkscape:window-height="1199"
     inkscape:window-x="429"
     inkscape:window-y="128"
     inkscape:window-maximized="0">
    <inkscape:grid
       type="xygrid"
       id="grid833"
       originx="-7.9375005"
       originy="-14.552079" />
  </sodipodi:namedview>
  <metadata
     id="metadata5">
    <rdf:RDF>
      <cc:Work
         rdf:about="">
        <dc:format>image/svg+xml</dc:format>
        <dc:type
           rdf:resource="http://purl.org/dc/dcmitype/StillImage" />
        <dc:title></dc:title>
      </cc:Work>
    </rdf:RDF>
  </metadata>
  <g
     inkscape:label="Layer 1"
     inkscape:groupmode="layer"
     id="layer1"
     transform="translate(-2.6458334,-5.9531233)">
    <g
       id="g846"
       transform="translate(3.0427088,5.6885398)">
      <g
         id="g1171"
         transform="matrix(0.22234199,0,0,0.22234199,-1.0179919,-0.67979816)"
         clip-path="url(#clipPath1239)">
        <g
           id="g1129"
           transform="matrix(1.1003791,0,0,1.1003791,-2.6791631,-3.1210998)"
           style="stroke-width:0.721342;stroke-miterlimit:4;stroke-dasharray:none">
          <g
             id="g998"
             transform="matrix(0.934453,-0.934453,0.934453,0.934453,-17.724049,22.836831)"
             style="stroke-width:0.545844;stroke-miterlimit:4;stroke-dasharray:none">
            <g
               id="g877"
               transform="translate(-0.5724856,0.5724856)">
              <path
                 style="fill:none;stroke:#000000;stroke-width:0.654661;stroke-linecap:round;stroke-linejoin:miter;stroke-miterlimit:4;stroke-dasharray:none;stroke-opacity:1"
                 d="m 16.819077,15.760787 c 0.215212,0.02232 0.411554,0.13394 0.615119,0.207257 0.671084,0.241698 0.870034,0.35773 1.530319,0.473223 0.20157,0.03525 0.406706,0.04578 0.610365,0.06569 0.0205,0.002 0.04214,0.0061 0.06182,0 0.0061,-0.0018 0.0036,-0.01389 0,-0.0191 -0.04629,-0.06633 -0.09491,-0.131241 -0.147694,-0.192521 C 19.29789,16.073493 19.119352,15.838677 18.905314,15.638855 18.46199,15.224983 17.97431,14.86105 17.52102,14.458126 17.109317,14.092165 16.109043,13.159222 15.64815,12.66669 c -0.13632,-0.14568 -0.282052,-0.287469 -0.384649,-0.458582 -0.03234,-0.05393 -0.05851,-0.15835 -0.0034,-0.188645 0.113924,-0.06262 0.263916,-0.05784 0.389282,-0.02345 0.441448,0.121074 0.876269,0.277868 1.285576,0.482813 2.412823,1.208128 2.435989,1.401753 4.437877,2.565014 0.03171,0.01843 2.13689,1.199517 2.402531,1.23513 0.01504,0.002 -0.01023,-0.02937 -0.02035,-0.04071 -0.269826,-0.303698 -0.52624,-0.620789 -0.818269,-0.903198 -0.497455,-0.481063 -1.009445,-0.948684 -1.547151,-1.384293 -1.685635,-1.365585 -1.660167,-1.059498 -3.297875,-2.483594 -0.420012,-0.365227 -0.821195,-0.755818 -1.180721,-1.180721 -0.240716,-0.284487 -0.46225,-0.5946253 -0.610718,-0.9364353 -0.0321,-0.07388 0.03217,-0.233079 0.110641,-0.214864 0.725087,0.168293 3.204225,1.6294733 3.388779,1.7382273 1.002993,0.59105 3.535128,2.216652 4.560024,2.850016 0.471225,0.291205 0.944793,0.578877 1.425007,0.855005 0.125726,0.07229 0.252817,0.147529 0.39162,0.189569 0.04592,0.01391 -0.06535,-0.07058 -0.101781,-0.101792 -0.326126,-0.279271 -0.653061,-0.557702 -0.985568,-0.829347 -0.471079,-0.384855 -0.963611,-0.743595 -1.425008,-1.140006 -0.502722,-0.431918 -0.976133,-0.896829 -1.465721,-1.343579 -2.007481,-1.8318263 -1.545122,-1.289396 -3.257163,-3.2571603 -0.110083,-0.126536 -0.210722,-0.261782 -0.301612,-0.402739 -0.0076,-0.01172 0.02904,-0.0054 0.04193,0 0.135574,0.0566 0.27054,0.115547 0.400219,0.18459 1.49181,0.79425 1.564746,0.858554 2.928586,1.667613 0.366331,0.217314 0.730811,0.437786 1.099293,0.6514323 0.329029,0.190772 0.66294,0.373011 0.993133,0.561761 0.02177,0.01244 0.06135,0.06677 0.06258,0.04172 0.0014,-0.02901 -0.04705,-0.03648 -0.06162,-0.06162 -0.09214,-0.159062 -0.170985,-0.325456 -0.256771,-0.488028 -0.263196,-0.4987753 -0.735745,-1.1772463 -0.257241,-1.7412143 0.307416,-0.362332 1.023371,-0.06829 1.329094,0.0738 0.0143,0.0066 0.210123,0.16054 0.217299,0.167539 0.0049,0.0048 0.0031,0.02643 0,0.02035 -0.02593,-0.05185 -0.03514,-0.111005 -0.06107,-0.162859 -0.0572,-0.11441 -0.0441,-0.01964 0.05216,-0.187648"
                 id="path861"
                 sodipodi:nodetypes="ccsscccccscccscsccssscssssscscccccssscccsccsccc" />
            </g>
          </g>
        </g>
      </g>
    </g>
  </g>
</svg>
