<?xml version="1.0" encoding="UTF-8" standalone="no"?>
<svg
   xmlns:dc="http://purl.org/dc/elements/1.1/"
   xmlns:cc="http://creativecommons.org/ns#"
   xmlns:rdf="http://www.w3.org/1999/02/22-rdf-syntax-ns#"
   xmlns:svg="http://www.w3.org/2000/svg"
   xmlns="http://www.w3.org/2000/svg"
   xmlns:sodipodi="http://sodipodi.sourceforge.net/DTD/sodipodi-0.dtd"
   xmlns:inkscape="http://www.inkscape.org/namespaces/inkscape"
   width="16"
   height="16"
   viewBox="0 0 4.2333334 4.2333333"
   version="1.1"
   id="svg8"
   inkscape:version="1.0.2 (1.0.2+r75+1)"
   sodipodi:docname="bullet-sm12.svg">
  <defs
     id="defs2">
    <clipPath
       clipPathUnits="userSpaceOnUse"
       id="clipPath1239">
      <rect
         style="fill:none;stroke:#000000;stroke-width:0.79375;stroke-miterlimit:4;stroke-dasharray:none"
         id="rect1241"
         width="26.458332"
         height="25.135416"
         x="3.5718739"
         y="5.2916713" />
    </clipPath>
  </defs>
  <sodipodi:namedview
     id="base"
     pagecolor="#ffffff"
     bordercolor="#666666"
     borderopacity="1.0"
     inkscape:pageopacity="0.0"
     inkscape:pageshadow="2"
     inkscape:zoom="31.999999"
     inkscape:cx="6.8482066"
     inkscape:cy="13.685643"
     inkscape:document-units="px"
     inkscape:current-layer="g877"
     inkscape:document-rotation="0"
     showgrid="true"
     units="px"
     lock-margins="false"
     inkscape:pagecheckerboard="true"
     borderlayer="false"
     fit-margin-top="10"
     fit-margin-left="10"
     fit-margin-right="10"
     fit-margin-bottom="10"
     inkscape:window-width="1514"
     inkscape:window-height="1199"
     inkscape:window-x="429"
     inkscape:window-y="128"
     inkscape:window-maximized="0">
    <inkscape:grid
       type="xygrid"
       id="grid833"
       originx="-7.9375005"
       originy="-14.552079" />
  </sodipodi:namedview>
  <metadata
     id="metadata5">
    <rdf:RDF>
      <cc:Work
         rdf:about="">
        <dc:format>image/svg+xml</dc:format>
        <dc:type
           rdf:resource="http://purl.org/dc/dcmitype/StillImage" />
        <dc:title></dc:title>
      </cc:Work>
    </rdf:RDF>
  </metadata>
  <g
     inkscape:label="Layer 1"
     inkscape:groupmode="layer"
     id="layer1"
     transform="translate(-2.6458334,-5.9531233)">
    <g
       id="g846"
       transform="translate(3.0427088,5.6885398)">
      <g
         id="g1171"
         transform="matrix(0.22234199,0,0,0.22234199,-1.0179919,-0.67979816)"
         clip-path="url(#clipPath1239)">
        <g
           id="g1129"
           transform="matrix(1.1003791,0,0,1.1003791,-2.6791631,-3.1210998)"
           style="stroke-width:0.721342;stroke-miterlimit:4;stroke-dasharray:none">
          <g
             id="g998"
             transform="matrix(0.934453,-0.934453,0.934453,0.934453,-17.724049,22.836831)"
             style="stroke-width:0.545844;stroke-miterlimit:4;stroke-dasharray:none">
            <g
               id="g877"
               transform="translate(-0.5724856,0.5724856)">
              <path
                 style="fill:none;stroke:#000000;stroke-width:0.654661;stroke-linecap:round;stroke-linejoin:miter;stroke-miterlimit:4;stroke-dasharray:none;stroke-opacity:1"
                 d="m 16.020224,12.209758 c 0.136396,0.167962 0.196304,0.385724 0.288403,0.581509 0.303621,0.645433 0.362253,0.868159 0.74748,1.416718 0.117606,0.167457 0.255213,0.319956 0.385143,0.478043 0.01308,0.01591 0.02548,0.03411 0.04371,0.04371 0.0056,0.003 0.01237,-0.0073 0.01351,-0.0135 0.01417,-0.07963 0.02569,-0.159913 0.0317,-0.240569 0.02173,-0.292006 0.06152,-0.584291 0.05147,-0.876934 -0.02083,-0.60613 -0.108328,-1.208312 -0.143942,-1.813746 -0.03234,-0.549891 -0.07995,-1.9168822 -0.05758,-2.5910552 0.0066,-0.199404 0.0038,-0.402712 0.05228,-0.596255 0.01527,-0.061 0.0706,-0.153343 0.130988,-0.135796 0.124836,0.03628 0.227516,0.145718 0.291846,0.258682 0.226538,0.397764 0.423133,0.816098 0.567639,1.25044 0.851847,2.5603992 0.731314,2.7136942 1.324313,4.9517922 0.0094,0.03545 0.662823,2.359196 0.825477,2.572215 0.0092,0.01205 0.01353,-0.028 0.0144,-0.04318 0.02395,-0.405543 0.06686,-0.811072 0.06005,-1.217261 -0.01159,-0.691917 -0.04297,-1.384606 -0.115158,-2.072844 -0.22631,-2.157538 -0.424737,-1.923094 -0.575785,-4.088117 -0.03874,-0.5552472 -0.04623,-1.1151162 0,-1.6697912 0.03095,-0.371374 0.09361,-0.747323 0.230317,-1.094003 0.02954,-0.07494 0.18756,-0.142064 0.230168,-0.0737 0.393713,0.631715 1.113518,3.4179412 1.167116,3.6253412 0.291288,1.127158 0.932304,4.067122 1.209158,5.239689 0.127294,0.53912 0.258742,1.077398 0.403053,1.612212 0.03778,0.140019 0.07445,0.283088 0.142871,0.410963 0.02263,0.04231 0.0037,-0.09612 8e-6,-0.143948 -0.03313,-0.42808 -0.06743,-0.856139 -0.110465,-1.283339 -0.06097,-0.605236 -0.155575,-1.207177 -0.201527,-1.813738 -0.05007,-0.660891 -0.05608,-1.324384 -0.08637,-1.986475 -0.124207,-2.714801 -0.180826,-2.004307 -2e-6,-4.6063232 0.01163,-0.167315 0.0361,-0.334111 0.07151,-0.498052 0.0029,-0.01366 0.02435,0.01672 0.02965,0.02965 0.05584,0.135893 0.109589,0.273011 0.152465,0.413528 0.49325,1.616489 0.499353,1.713532 0.891643,3.2500042 0.105371,0.412699 0.2072,0.826323 0.316685,1.23795 0.09776,0.367554 0.205011,0.732528 0.305027,1.099476 0.0066,0.02419 -0.0038,0.09059 0.01475,0.07375 0.0215,-0.01952 -0.0075,-0.05907 0,-0.08714 0.04732,-0.17763 0.109227,-0.35104 0.163523,-0.526655 0.16658,-0.538795 0.312189,-1.352689 1.049328,-1.413122 0.473583,-0.03883 0.771921,0.675345 0.887627,0.991996 0.0054,0.01478 0.03506,0.262099 0.03519,0.272122 7e-5,0.0069 -0.0165,0.02088 -0.01439,0.01439 0.01833,-0.055 0.05364,-0.10334 0.07198,-0.158341 0.04045,-0.121347 -0.0173,-0.04507 0.16957,-0.09581"
                 id="path861"
                 sodipodi:nodetypes="ccsscccccscccscsccssscssssscscccccssscccsccsccc" />
            </g>
          </g>
        </g>
      </g>
    </g>
  </g>
</svg>
