<?xml version="1.0" encoding="UTF-8" standalone="no"?>
<svg
   xmlns:dc="http://purl.org/dc/elements/1.1/"
   xmlns:cc="http://creativecommons.org/ns#"
   xmlns:rdf="http://www.w3.org/1999/02/22-rdf-syntax-ns#"
   xmlns:svg="http://www.w3.org/2000/svg"
   xmlns="http://www.w3.org/2000/svg"
   xmlns:sodipodi="http://sodipodi.sourceforge.net/DTD/sodipodi-0.dtd"
   xmlns:inkscape="http://www.inkscape.org/namespaces/inkscape"
   width="16"
   height="16"
   viewBox="0 0 4.2333334 4.2333333"
   version="1.1"
   id="svg8"
   inkscape:version="1.0.2 (1.0.2+r75+1)"
   sodipodi:docname="bullet-sm11.svg">
  <defs
     id="defs2">
    <clipPath
       clipPathUnits="userSpaceOnUse"
       id="clipPath1239">
      <rect
         style="fill:none;stroke:#000000;stroke-width:0.79375;stroke-miterlimit:4;stroke-dasharray:none"
         id="rect1241"
         width="26.458332"
         height="25.135416"
         x="3.5718739"
         y="5.2916713" />
    </clipPath>
  </defs>
  <sodipodi:namedview
     id="base"
     pagecolor="#ffffff"
     bordercolor="#666666"
     borderopacity="1.0"
     inkscape:pageopacity="0.0"
     inkscape:pageshadow="2"
     inkscape:zoom="31.999999"
     inkscape:cx="6.8482066"
     inkscape:cy="13.685643"
     inkscape:document-units="px"
     inkscape:current-layer="g877"
     inkscape:document-rotation="0"
     showgrid="true"
     units="px"
     lock-margins="false"
     inkscape:pagecheckerboard="true"
     borderlayer="false"
     fit-margin-top="10"
     fit-margin-left="10"
     fit-margin-right="10"
     fit-margin-bottom="10"
     inkscape:window-width="1514"
     inkscape:window-height="1199"
     inkscape:window-x="429"
     inkscape:window-y="128"
     inkscape:window-maximized="0">
    <inkscape:grid
       type="xygrid"
       id="grid833"
       originx="-7.9375005"
       originy="-14.552079" />
  </sodipodi:namedview>
  <metadata
     id="metadata5">
    <rdf:RDF>
      <cc:Work
         rdf:about="">
        <dc:format>image/svg+xml</dc:format>
        <dc:type
           rdf:resource="http://purl.org/dc/dcmitype/StillImage" />
        <dc:title></dc:title>
      </cc:Work>
    </rdf:RDF>
  </metadata>
  <g
     inkscape:label="Layer 1"
     inkscape:groupmode="layer"
     id="layer1"
     transform="translate(-2.6458334,-5.9531233)">
    <g
       id="g846"
       transform="translate(3.0427088,5.6885398)">
      <g
         id="g1171"
         transform="matrix(0.22234199,0,0,0.22234199,-1.0179919,-0.67979816)"
         clip-path="url(#clipPath1239)">
        <g
           id="g1129"
           transform="matrix(1.1003791,0,0,1.1003791,-2.6791631,-3.1210998)"
           style="stroke-width:0.721342;stroke-miterlimit:4;stroke-dasharray:none">
          <g
             id="g998"
             transform="matrix(0.934453,-0.934453,0.934453,0.934453,-17.724049,22.836831)"
             style="stroke-width:0.545844;stroke-miterlimit:4;stroke-dasharray:none">
            <g
               id="g877"
               transform="translate(-0.5724856,0.5724856)">
              <path
                 style="fill:none;stroke:#000000;stroke-width:0.65466058;stroke-linecap:round;stroke-linejoin:miter;stroke-miterlimit:4;stroke-dasharray:none;stroke-opacity:1"
                 d="m 21.516566,17.706101 c -0.167962,-0.136396 -0.385724,-0.196304 -0.581509,-0.288403 -0.645433,-0.303621 -0.868159,-0.362253 -1.416718,-0.74748 -0.167457,-0.117606 -0.319956,-0.255213 -0.478043,-0.385143 -0.01591,-0.01308 -0.03411,-0.02548 -0.04371,-0.04371 -0.003,-0.0056 0.0073,-0.01237 0.0135,-0.01351 0.07963,-0.01417 0.159913,-0.02569 0.240569,-0.0317 0.292006,-0.02173 0.584291,-0.06152 0.876934,-0.05147 0.60613,0.02083 1.208312,0.108328 1.813746,0.143942 0.549891,0.03234 1.916882,0.07995 2.591055,0.05758 0.199404,-0.0066 0.402712,-0.0038 0.596255,-0.05228 0.061,-0.01527 0.153343,-0.0706 0.135796,-0.130988 -0.03628,-0.124836 -0.145718,-0.227516 -0.258682,-0.291846 -0.397764,-0.226538 -0.816098,-0.423133 -1.25044,-0.567639 -2.560399,-0.851848 -2.713694,-0.731315 -4.951792,-1.324314 -0.03545,-0.0094 -2.359196,-0.662823 -2.572215,-0.825477 -0.01205,-0.0092 0.028,-0.01353 0.04318,-0.0144 0.405543,-0.02395 0.811072,-0.06686 1.217261,-0.06005 0.691917,0.01159 1.384606,0.04297 2.072844,0.115158 2.157538,0.22631 1.923094,0.424737 4.088117,0.575785 0.555247,0.03874 1.115116,0.04623 1.669791,0 0.371374,-0.03095 0.747323,-0.09361 1.094003,-0.230317 0.07494,-0.02954 0.142064,-0.18756 0.0737,-0.230168 -0.631715,-0.393713 -3.417941,-1.113518 -3.625341,-1.167116 -1.127158,-0.291288 -4.067122,-0.932304 -5.239689,-1.209158 -0.53912,-0.127294 -1.077398,-0.258742 -1.612212,-0.403053 -0.140019,-0.03778 -0.283088,-0.07445 -0.410963,-0.142871 -0.04231,-0.02263 0.09612,-0.0037 0.143948,-8e-6 0.42808,0.03313 0.856139,0.06743 1.283339,0.110465 0.605236,0.06097 1.207177,0.155575 1.813738,0.201527 0.660891,0.05007 1.324384,0.05608 1.986475,0.08637 2.714801,0.124207 2.004307,0.180826 4.606323,2e-6 0.167315,-0.01163 0.334111,-0.0361 0.498052,-0.07151 0.01366,-0.0029 -0.01672,-0.02435 -0.02965,-0.02965 C 25.768335,10.628834 25.631217,10.57508 25.4907,10.532204 23.874211,10.038954 23.777168,10.032851 22.240696,9.6405611 21.827997,9.5351902 21.414373,9.4333611 21.002746,9.3238758 20.635192,9.2261133 20.270218,9.118865 19.90327,9.0188497 c -0.02419,-0.0066 -0.09059,0.00383 -0.07375,-0.01475 0.01952,-0.021503 0.05907,0.00747 0.08714,0 C 20.09429,8.9567785 20.2677,8.894872 20.443315,8.8405761 20.98211,8.6739963 21.796004,8.5283875 21.856437,7.7912485 21.895268,7.3176651 21.181092,7.0193276 20.864441,6.9036216 c -0.01478,-0.00544 -0.262099,-0.035061 -0.272122,-0.035186 -0.0069,-7.07e-5 -0.02088,0.016497 -0.01439,0.01439 0.055,-0.018328 0.10334,-0.053645 0.158341,-0.071976 0.121347,-0.040454 0.04507,0.017296 0.09581,-0.1695699"
                 id="path861"
                 sodipodi:nodetypes="ccsscccccscccscsccssscssssscscccccssscccsccsccc" />
            </g>
          </g>
        </g>
      </g>
    </g>
  </g>
</svg>
